<mxfile host="app.diagrams.net" agent="Mozilla/5.0 (Macintosh; Intel Mac OS X 10_15_7) AppleWebKit/537.36 (KHTML, like Gecko) Chrome/128.0.0.0 Safari/537.36" version="25.0.3">
  <diagram name="第 1 页" id="ApPfS7VMRPzx3mljVk0U">
    <mxGraphModel dx="906" dy="583" grid="1" gridSize="10" guides="1" tooltips="1" connect="1" arrows="1" fold="1" page="1" pageScale="1" pageWidth="827" pageHeight="1169" math="0" shadow="0">
      <root>
        <mxCell id="0" />
        <mxCell id="1" parent="0" />
        <mxCell id="qd3YyKybXNKt5LPhx5gm-1" value="&lt;p style=&quot;margin: 0px; font-variant-numeric: normal; font-variant-east-asian: normal; font-variant-alternates: normal; font-size-adjust: none; font-kerning: auto; font-optical-sizing: auto; font-feature-settings: normal; font-variation-settings: normal; font-variant-position: normal; font-stretch: normal; line-height: normal; font-family: &amp;quot;Times New Roman&amp;quot;; text-align: start;&quot; class=&quot;p1&quot;&gt;Courseware Management System&lt;/p&gt;" style="shape=umlFrame;whiteSpace=wrap;html=1;pointerEvents=0;width=130;height=40;" vertex="1" parent="1">
          <mxGeometry x="80" y="50" width="640" height="470" as="geometry" />
        </mxCell>
        <mxCell id="qd3YyKybXNKt5LPhx5gm-2" value="adminitor" style="shape=umlActor;verticalLabelPosition=bottom;verticalAlign=top;html=1;" vertex="1" parent="1">
          <mxGeometry x="30" y="210" width="30" height="60" as="geometry" />
        </mxCell>
        <mxCell id="qd3YyKybXNKt5LPhx5gm-9" value="tutor" style="shape=umlActor;verticalLabelPosition=bottom;verticalAlign=top;html=1;" vertex="1" parent="1">
          <mxGeometry x="750" y="100" width="30" height="60" as="geometry" />
        </mxCell>
        <mxCell id="qd3YyKybXNKt5LPhx5gm-10" value="student&lt;div&gt;&lt;br&gt;&lt;/div&gt;" style="shape=umlActor;verticalLabelPosition=bottom;verticalAlign=top;html=1;" vertex="1" parent="1">
          <mxGeometry x="750" y="340" width="30" height="60" as="geometry" />
        </mxCell>
        <mxCell id="qd3YyKybXNKt5LPhx5gm-15" value="&lt;div class=&quot;lake-content&quot;&gt;&lt;div class=&quot;lake-content&quot;&gt;&lt;div class=&quot;lake-content&quot;&gt;&lt;span style=&quot;background-color: rgb(251, 245, 203);&quot; class=&quot;ne-text&quot;&gt;manage the courses&lt;/span&gt;&lt;/div&gt;&lt;/div&gt;&lt;/div&gt;" style="ellipse;whiteSpace=wrap;html=1;" vertex="1" parent="1">
          <mxGeometry x="215" y="110" width="120" height="60" as="geometry" />
        </mxCell>
        <mxCell id="qd3YyKybXNKt5LPhx5gm-16" value="&lt;div class=&quot;lake-content&quot;&gt;&lt;span style=&quot;background-color: rgb(251, 245, 203);&quot; class=&quot;ne-text&quot;&gt;assign courses to tutor&lt;/span&gt;&lt;/div&gt;" style="ellipse;whiteSpace=wrap;html=1;" vertex="1" parent="1">
          <mxGeometry x="230" y="230" width="110" height="60" as="geometry" />
        </mxCell>
        <mxCell id="qd3YyKybXNKt5LPhx5gm-17" value="" style="endArrow=open;endFill=1;endSize=12;html=1;rounded=0;exitX=1;exitY=0.3333333333333333;exitDx=0;exitDy=0;exitPerimeter=0;entryX=0;entryY=0.5;entryDx=0;entryDy=0;" edge="1" parent="1" source="qd3YyKybXNKt5LPhx5gm-2" target="qd3YyKybXNKt5LPhx5gm-16">
          <mxGeometry width="160" relative="1" as="geometry">
            <mxPoint x="100" y="240" as="sourcePoint" />
            <mxPoint x="260" y="240" as="targetPoint" />
          </mxGeometry>
        </mxCell>
        <mxCell id="qd3YyKybXNKt5LPhx5gm-18" value="" style="endArrow=open;endFill=1;endSize=12;html=1;rounded=0;exitX=1;exitY=0.3333333333333333;exitDx=0;exitDy=0;exitPerimeter=0;entryX=0;entryY=0.5;entryDx=0;entryDy=0;" edge="1" parent="1" source="qd3YyKybXNKt5LPhx5gm-2" target="qd3YyKybXNKt5LPhx5gm-15">
          <mxGeometry width="160" relative="1" as="geometry">
            <mxPoint x="70" y="240" as="sourcePoint" />
            <mxPoint x="190" y="170" as="targetPoint" />
          </mxGeometry>
        </mxCell>
        <mxCell id="qd3YyKybXNKt5LPhx5gm-19" value="&lt;div class=&quot;lake-content&quot;&gt;&lt;span style=&quot;background-color: rgb(251, 245, 203);&quot; class=&quot;ne-text&quot;&gt;define the course schedule&lt;/span&gt;&lt;/div&gt;" style="ellipse;whiteSpace=wrap;html=1;" vertex="1" parent="1">
          <mxGeometry x="230" y="370" width="110" height="50" as="geometry" />
        </mxCell>
        <mxCell id="qd3YyKybXNKt5LPhx5gm-20" value="" style="endArrow=open;endFill=1;endSize=12;html=1;rounded=0;entryX=0;entryY=0.5;entryDx=0;entryDy=0;" edge="1" parent="1" target="qd3YyKybXNKt5LPhx5gm-19">
          <mxGeometry width="160" relative="1" as="geometry">
            <mxPoint x="60" y="230" as="sourcePoint" />
            <mxPoint x="180" y="295" as="targetPoint" />
          </mxGeometry>
        </mxCell>
        <mxCell id="qd3YyKybXNKt5LPhx5gm-21" value="teach course" style="ellipse;whiteSpace=wrap;html=1;" vertex="1" parent="1">
          <mxGeometry x="430" y="145" width="140" height="70" as="geometry" />
        </mxCell>
        <mxCell id="qd3YyKybXNKt5LPhx5gm-24" value="" style="endArrow=open;endFill=1;endSize=12;html=1;rounded=0;exitX=0;exitY=0.3333333333333333;exitDx=0;exitDy=0;exitPerimeter=0;" edge="1" parent="1" source="qd3YyKybXNKt5LPhx5gm-9" target="qd3YyKybXNKt5LPhx5gm-21">
          <mxGeometry width="160" relative="1" as="geometry">
            <mxPoint x="70" y="240" as="sourcePoint" />
            <mxPoint x="190" y="170" as="targetPoint" />
          </mxGeometry>
        </mxCell>
        <mxCell id="qd3YyKybXNKt5LPhx5gm-25" value="" style="endArrow=open;endFill=1;endSize=12;html=1;rounded=0;exitX=0;exitY=0.3333333333333333;exitDx=0;exitDy=0;exitPerimeter=0;" edge="1" parent="1" source="qd3YyKybXNKt5LPhx5gm-10" target="qd3YyKybXNKt5LPhx5gm-35">
          <mxGeometry width="160" relative="1" as="geometry">
            <mxPoint x="760" y="130" as="sourcePoint" />
            <mxPoint x="560" y="340" as="targetPoint" />
          </mxGeometry>
        </mxCell>
        <mxCell id="qd3YyKybXNKt5LPhx5gm-26" value="&lt;div class=&quot;lake-content&quot;&gt;&lt;span class=&quot;ne-text&quot;&gt;topics&lt;/span&gt;&lt;/div&gt;" style="ellipse;whiteSpace=wrap;html=1;" vertex="1" parent="1">
          <mxGeometry x="410" y="75" width="110" height="35" as="geometry" />
        </mxCell>
        <mxCell id="qd3YyKybXNKt5LPhx5gm-27" value="include" style="endArrow=open;endSize=12;dashed=1;html=1;rounded=0;exitX=1;exitY=0.5;exitDx=0;exitDy=0;entryX=0;entryY=0.5;entryDx=0;entryDy=0;" edge="1" parent="1" source="qd3YyKybXNKt5LPhx5gm-15" target="qd3YyKybXNKt5LPhx5gm-26">
          <mxGeometry width="160" relative="1" as="geometry">
            <mxPoint x="310" y="160" as="sourcePoint" />
            <mxPoint x="470" y="160" as="targetPoint" />
          </mxGeometry>
        </mxCell>
        <mxCell id="qd3YyKybXNKt5LPhx5gm-32" value="Extends" style="endArrow=block;endSize=16;endFill=0;html=1;rounded=0;" edge="1" parent="1" source="qd3YyKybXNKt5LPhx5gm-16" target="qd3YyKybXNKt5LPhx5gm-21">
          <mxGeometry width="160" relative="1" as="geometry">
            <mxPoint x="300" y="190" as="sourcePoint" />
            <mxPoint x="460" y="190" as="targetPoint" />
          </mxGeometry>
        </mxCell>
        <mxCell id="qd3YyKybXNKt5LPhx5gm-33" value="&lt;div class=&quot;lake-content&quot;&gt;&lt;div class=&quot;lake-content&quot;&gt;&lt;span style=&quot;background-color: rgb(251, 245, 203);&quot; class=&quot;ne-text&quot;&gt;enroll course&lt;/span&gt;&lt;/div&gt;&lt;/div&gt;" style="ellipse;whiteSpace=wrap;html=1;" vertex="1" parent="1">
          <mxGeometry x="440" y="410" width="120" height="60" as="geometry" />
        </mxCell>
        <mxCell id="qd3YyKybXNKt5LPhx5gm-34" value="" style="endArrow=open;endFill=1;endSize=12;html=1;rounded=0;entryX=1;entryY=0.3;entryDx=0;entryDy=0;entryPerimeter=0;" edge="1" parent="1" target="qd3YyKybXNKt5LPhx5gm-33">
          <mxGeometry width="160" relative="1" as="geometry">
            <mxPoint x="750" y="360" as="sourcePoint" />
            <mxPoint x="560" y="420" as="targetPoint" />
          </mxGeometry>
        </mxCell>
        <mxCell id="qd3YyKybXNKt5LPhx5gm-35" value="&lt;div class=&quot;lake-content&quot;&gt;&lt;span style=&quot;background-color: rgb(251, 245, 203);&quot; class=&quot;ne-text&quot;&gt;refer to Course schedule&lt;/span&gt;&lt;/div&gt;" style="ellipse;whiteSpace=wrap;html=1;" vertex="1" parent="1">
          <mxGeometry x="440" y="300" width="140" height="70" as="geometry" />
        </mxCell>
        <mxCell id="qd3YyKybXNKt5LPhx5gm-37" value="Extends" style="endArrow=block;endSize=16;endFill=0;html=1;rounded=0;entryX=0.014;entryY=0.643;entryDx=0;entryDy=0;entryPerimeter=0;exitX=0.991;exitY=0.34;exitDx=0;exitDy=0;exitPerimeter=0;" edge="1" parent="1" source="qd3YyKybXNKt5LPhx5gm-19" target="qd3YyKybXNKt5LPhx5gm-35">
          <mxGeometry width="160" relative="1" as="geometry">
            <mxPoint x="230" y="320" as="sourcePoint" />
            <mxPoint x="390" y="320" as="targetPoint" />
          </mxGeometry>
        </mxCell>
      </root>
    </mxGraphModel>
  </diagram>
</mxfile>
